<mxfile host="app.diagrams.net" modified="2021-07-27T21:32:00.292Z" agent="5.0 (Macintosh; Intel Mac OS X 10_15_7) AppleWebKit/537.36 (KHTML, like Gecko) Chrome/92.0.4515.107 Safari/537.36" etag="14jcEVIxOv4PDkGsRyxD" version="14.9.2" type="github">
  <diagram id="62VL07I6OxhEm-P0ryCz" name="Page-1">
    <mxGraphModel dx="1113" dy="635" grid="1" gridSize="10" guides="1" tooltips="1" connect="1" arrows="1" fold="1" page="1" pageScale="1" pageWidth="827" pageHeight="1169" math="0" shadow="0">
      <root>
        <mxCell id="0" />
        <mxCell id="1" parent="0" />
        <mxCell id="sC6qaZXUThpuqPU8CdTA-1" value="User" style="shape=table;startSize=30;container=1;collapsible=1;childLayout=tableLayout;fixedRows=1;rowLines=0;fontStyle=1;align=center;resizeLast=1;" vertex="1" parent="1">
          <mxGeometry x="60" y="40" width="180" height="310" as="geometry" />
        </mxCell>
        <mxCell id="sC6qaZXUThpuqPU8CdTA-2" value="" style="shape=partialRectangle;collapsible=0;dropTarget=0;pointerEvents=0;fillColor=none;top=0;left=0;bottom=1;right=0;points=[[0,0.5],[1,0.5]];portConstraint=eastwest;" vertex="1" parent="sC6qaZXUThpuqPU8CdTA-1">
          <mxGeometry y="30" width="180" height="30" as="geometry" />
        </mxCell>
        <mxCell id="sC6qaZXUThpuqPU8CdTA-3" value="PK" style="shape=partialRectangle;connectable=0;fillColor=none;top=0;left=0;bottom=0;right=0;fontStyle=1;overflow=hidden;" vertex="1" parent="sC6qaZXUThpuqPU8CdTA-2">
          <mxGeometry width="30" height="30" as="geometry" />
        </mxCell>
        <mxCell id="sC6qaZXUThpuqPU8CdTA-4" value="ID: number" style="shape=partialRectangle;connectable=0;fillColor=none;top=0;left=0;bottom=0;right=0;align=left;spacingLeft=6;fontStyle=5;overflow=hidden;" vertex="1" parent="sC6qaZXUThpuqPU8CdTA-2">
          <mxGeometry x="30" width="150" height="30" as="geometry" />
        </mxCell>
        <mxCell id="sC6qaZXUThpuqPU8CdTA-5" value="" style="shape=partialRectangle;collapsible=0;dropTarget=0;pointerEvents=0;fillColor=none;top=0;left=0;bottom=0;right=0;points=[[0,0.5],[1,0.5]];portConstraint=eastwest;" vertex="1" parent="sC6qaZXUThpuqPU8CdTA-1">
          <mxGeometry y="60" width="180" height="30" as="geometry" />
        </mxCell>
        <mxCell id="sC6qaZXUThpuqPU8CdTA-6" value="" style="shape=partialRectangle;connectable=0;fillColor=none;top=0;left=0;bottom=0;right=0;editable=1;overflow=hidden;" vertex="1" parent="sC6qaZXUThpuqPU8CdTA-5">
          <mxGeometry width="30" height="30" as="geometry" />
        </mxCell>
        <mxCell id="sC6qaZXUThpuqPU8CdTA-7" value="Name: string" style="shape=partialRectangle;connectable=0;fillColor=none;top=0;left=0;bottom=0;right=0;align=left;spacingLeft=6;overflow=hidden;" vertex="1" parent="sC6qaZXUThpuqPU8CdTA-5">
          <mxGeometry x="30" width="150" height="30" as="geometry" />
        </mxCell>
        <mxCell id="sC6qaZXUThpuqPU8CdTA-8" value="" style="shape=partialRectangle;collapsible=0;dropTarget=0;pointerEvents=0;fillColor=none;top=0;left=0;bottom=0;right=0;points=[[0,0.5],[1,0.5]];portConstraint=eastwest;" vertex="1" parent="sC6qaZXUThpuqPU8CdTA-1">
          <mxGeometry y="90" width="180" height="30" as="geometry" />
        </mxCell>
        <mxCell id="sC6qaZXUThpuqPU8CdTA-9" value="" style="shape=partialRectangle;connectable=0;fillColor=none;top=0;left=0;bottom=0;right=0;editable=1;overflow=hidden;" vertex="1" parent="sC6qaZXUThpuqPU8CdTA-8">
          <mxGeometry width="30" height="30" as="geometry" />
        </mxCell>
        <mxCell id="sC6qaZXUThpuqPU8CdTA-10" value="Surname: string" style="shape=partialRectangle;connectable=0;fillColor=none;top=0;left=0;bottom=0;right=0;align=left;spacingLeft=6;overflow=hidden;" vertex="1" parent="sC6qaZXUThpuqPU8CdTA-8">
          <mxGeometry x="30" width="150" height="30" as="geometry" />
        </mxCell>
        <mxCell id="sC6qaZXUThpuqPU8CdTA-11" value="" style="shape=partialRectangle;collapsible=0;dropTarget=0;pointerEvents=0;fillColor=none;top=0;left=0;bottom=0;right=0;points=[[0,0.5],[1,0.5]];portConstraint=eastwest;" vertex="1" parent="sC6qaZXUThpuqPU8CdTA-1">
          <mxGeometry y="120" width="180" height="30" as="geometry" />
        </mxCell>
        <mxCell id="sC6qaZXUThpuqPU8CdTA-12" value="" style="shape=partialRectangle;connectable=0;fillColor=none;top=0;left=0;bottom=0;right=0;editable=1;overflow=hidden;" vertex="1" parent="sC6qaZXUThpuqPU8CdTA-11">
          <mxGeometry width="30" height="30" as="geometry" />
        </mxCell>
        <mxCell id="sC6qaZXUThpuqPU8CdTA-13" value="Email: string" style="shape=partialRectangle;connectable=0;fillColor=none;top=0;left=0;bottom=0;right=0;align=left;spacingLeft=6;overflow=hidden;" vertex="1" parent="sC6qaZXUThpuqPU8CdTA-11">
          <mxGeometry x="30" width="150" height="30" as="geometry" />
        </mxCell>
        <mxCell id="sC6qaZXUThpuqPU8CdTA-78" value="" style="shape=partialRectangle;collapsible=0;dropTarget=0;pointerEvents=0;fillColor=none;top=0;left=0;bottom=0;right=0;points=[[0,0.5],[1,0.5]];portConstraint=eastwest;" vertex="1" parent="sC6qaZXUThpuqPU8CdTA-1">
          <mxGeometry y="150" width="180" height="30" as="geometry" />
        </mxCell>
        <mxCell id="sC6qaZXUThpuqPU8CdTA-79" value="" style="shape=partialRectangle;connectable=0;fillColor=none;top=0;left=0;bottom=0;right=0;editable=1;overflow=hidden;" vertex="1" parent="sC6qaZXUThpuqPU8CdTA-78">
          <mxGeometry width="30" height="30" as="geometry" />
        </mxCell>
        <mxCell id="sC6qaZXUThpuqPU8CdTA-80" value="Password: string" style="shape=partialRectangle;connectable=0;fillColor=none;top=0;left=0;bottom=0;right=0;align=left;spacingLeft=6;overflow=hidden;" vertex="1" parent="sC6qaZXUThpuqPU8CdTA-78">
          <mxGeometry x="30" width="150" height="30" as="geometry" />
        </mxCell>
        <mxCell id="sC6qaZXUThpuqPU8CdTA-82" value="" style="shape=partialRectangle;collapsible=0;dropTarget=0;pointerEvents=0;fillColor=none;top=0;left=0;bottom=0;right=0;points=[[0,0.5],[1,0.5]];portConstraint=eastwest;" vertex="1" parent="sC6qaZXUThpuqPU8CdTA-1">
          <mxGeometry y="180" width="180" height="30" as="geometry" />
        </mxCell>
        <mxCell id="sC6qaZXUThpuqPU8CdTA-83" value="" style="shape=partialRectangle;connectable=0;fillColor=none;top=0;left=0;bottom=0;right=0;editable=1;overflow=hidden;" vertex="1" parent="sC6qaZXUThpuqPU8CdTA-82">
          <mxGeometry width="30" height="30" as="geometry" />
        </mxCell>
        <mxCell id="sC6qaZXUThpuqPU8CdTA-84" value="RoleID: number" style="shape=partialRectangle;connectable=0;fillColor=none;top=0;left=0;bottom=0;right=0;align=left;spacingLeft=6;overflow=hidden;" vertex="1" parent="sC6qaZXUThpuqPU8CdTA-82">
          <mxGeometry x="30" width="150" height="30" as="geometry" />
        </mxCell>
        <mxCell id="sC6qaZXUThpuqPU8CdTA-86" value="" style="shape=partialRectangle;collapsible=0;dropTarget=0;pointerEvents=0;fillColor=none;top=0;left=0;bottom=0;right=0;points=[[0,0.5],[1,0.5]];portConstraint=eastwest;" vertex="1" parent="sC6qaZXUThpuqPU8CdTA-1">
          <mxGeometry y="210" width="180" height="30" as="geometry" />
        </mxCell>
        <mxCell id="sC6qaZXUThpuqPU8CdTA-87" value="" style="shape=partialRectangle;connectable=0;fillColor=none;top=0;left=0;bottom=0;right=0;editable=1;overflow=hidden;" vertex="1" parent="sC6qaZXUThpuqPU8CdTA-86">
          <mxGeometry width="30" height="30" as="geometry" />
        </mxCell>
        <mxCell id="sC6qaZXUThpuqPU8CdTA-88" value="DepartmentID: number" style="shape=partialRectangle;connectable=0;fillColor=none;top=0;left=0;bottom=0;right=0;align=left;spacingLeft=6;overflow=hidden;" vertex="1" parent="sC6qaZXUThpuqPU8CdTA-86">
          <mxGeometry x="30" width="150" height="30" as="geometry" />
        </mxCell>
        <mxCell id="sC6qaZXUThpuqPU8CdTA-90" value="" style="shape=partialRectangle;collapsible=0;dropTarget=0;pointerEvents=0;fillColor=none;top=0;left=0;bottom=0;right=0;points=[[0,0.5],[1,0.5]];portConstraint=eastwest;" vertex="1" parent="sC6qaZXUThpuqPU8CdTA-1">
          <mxGeometry y="240" width="180" height="30" as="geometry" />
        </mxCell>
        <mxCell id="sC6qaZXUThpuqPU8CdTA-91" value="" style="shape=partialRectangle;connectable=0;fillColor=none;top=0;left=0;bottom=0;right=0;editable=1;overflow=hidden;" vertex="1" parent="sC6qaZXUThpuqPU8CdTA-90">
          <mxGeometry width="30" height="30" as="geometry" />
        </mxCell>
        <mxCell id="sC6qaZXUThpuqPU8CdTA-92" value="Position: string" style="shape=partialRectangle;connectable=0;fillColor=none;top=0;left=0;bottom=0;right=0;align=left;spacingLeft=6;overflow=hidden;" vertex="1" parent="sC6qaZXUThpuqPU8CdTA-90">
          <mxGeometry x="30" width="150" height="30" as="geometry" />
        </mxCell>
        <mxCell id="sC6qaZXUThpuqPU8CdTA-94" value="" style="shape=partialRectangle;collapsible=0;dropTarget=0;pointerEvents=0;fillColor=none;top=0;left=0;bottom=0;right=0;points=[[0,0.5],[1,0.5]];portConstraint=eastwest;" vertex="1" parent="sC6qaZXUThpuqPU8CdTA-1">
          <mxGeometry y="270" width="180" height="30" as="geometry" />
        </mxCell>
        <mxCell id="sC6qaZXUThpuqPU8CdTA-95" value="" style="shape=partialRectangle;connectable=0;fillColor=none;top=0;left=0;bottom=0;right=0;editable=1;overflow=hidden;" vertex="1" parent="sC6qaZXUThpuqPU8CdTA-94">
          <mxGeometry width="30" height="30" as="geometry" />
        </mxCell>
        <mxCell id="sC6qaZXUThpuqPU8CdTA-96" value="DocumentsID: number[]" style="shape=partialRectangle;connectable=0;fillColor=none;top=0;left=0;bottom=0;right=0;align=left;spacingLeft=6;overflow=hidden;" vertex="1" parent="sC6qaZXUThpuqPU8CdTA-94">
          <mxGeometry x="30" width="150" height="30" as="geometry" />
        </mxCell>
        <mxCell id="sC6qaZXUThpuqPU8CdTA-19" value="Department" style="shape=table;startSize=30;container=1;collapsible=1;childLayout=tableLayout;fixedRows=1;rowLines=0;fontStyle=1;align=center;resizeLast=1;" vertex="1" parent="1">
          <mxGeometry x="310" y="10" width="180" height="160" as="geometry" />
        </mxCell>
        <mxCell id="sC6qaZXUThpuqPU8CdTA-20" value="" style="shape=partialRectangle;collapsible=0;dropTarget=0;pointerEvents=0;fillColor=none;top=0;left=0;bottom=1;right=0;points=[[0,0.5],[1,0.5]];portConstraint=eastwest;" vertex="1" parent="sC6qaZXUThpuqPU8CdTA-19">
          <mxGeometry y="30" width="180" height="30" as="geometry" />
        </mxCell>
        <mxCell id="sC6qaZXUThpuqPU8CdTA-21" value="PK" style="shape=partialRectangle;connectable=0;fillColor=none;top=0;left=0;bottom=0;right=0;fontStyle=1;overflow=hidden;" vertex="1" parent="sC6qaZXUThpuqPU8CdTA-20">
          <mxGeometry width="30" height="30" as="geometry" />
        </mxCell>
        <mxCell id="sC6qaZXUThpuqPU8CdTA-22" value="ID" style="shape=partialRectangle;connectable=0;fillColor=none;top=0;left=0;bottom=0;right=0;align=left;spacingLeft=6;fontStyle=5;overflow=hidden;" vertex="1" parent="sC6qaZXUThpuqPU8CdTA-20">
          <mxGeometry x="30" width="150" height="30" as="geometry" />
        </mxCell>
        <mxCell id="sC6qaZXUThpuqPU8CdTA-23" value="" style="shape=partialRectangle;collapsible=0;dropTarget=0;pointerEvents=0;fillColor=none;top=0;left=0;bottom=0;right=0;points=[[0,0.5],[1,0.5]];portConstraint=eastwest;" vertex="1" parent="sC6qaZXUThpuqPU8CdTA-19">
          <mxGeometry y="60" width="180" height="30" as="geometry" />
        </mxCell>
        <mxCell id="sC6qaZXUThpuqPU8CdTA-24" value="" style="shape=partialRectangle;connectable=0;fillColor=none;top=0;left=0;bottom=0;right=0;editable=1;overflow=hidden;" vertex="1" parent="sC6qaZXUThpuqPU8CdTA-23">
          <mxGeometry width="30" height="30" as="geometry" />
        </mxCell>
        <mxCell id="sC6qaZXUThpuqPU8CdTA-25" value="Title: string" style="shape=partialRectangle;connectable=0;fillColor=none;top=0;left=0;bottom=0;right=0;align=left;spacingLeft=6;overflow=hidden;" vertex="1" parent="sC6qaZXUThpuqPU8CdTA-23">
          <mxGeometry x="30" width="150" height="30" as="geometry" />
        </mxCell>
        <mxCell id="sC6qaZXUThpuqPU8CdTA-26" value="" style="shape=partialRectangle;collapsible=0;dropTarget=0;pointerEvents=0;fillColor=none;top=0;left=0;bottom=0;right=0;points=[[0,0.5],[1,0.5]];portConstraint=eastwest;" vertex="1" parent="sC6qaZXUThpuqPU8CdTA-19">
          <mxGeometry y="90" width="180" height="30" as="geometry" />
        </mxCell>
        <mxCell id="sC6qaZXUThpuqPU8CdTA-27" value="" style="shape=partialRectangle;connectable=0;fillColor=none;top=0;left=0;bottom=0;right=0;editable=1;overflow=hidden;" vertex="1" parent="sC6qaZXUThpuqPU8CdTA-26">
          <mxGeometry width="30" height="30" as="geometry" />
        </mxCell>
        <mxCell id="sC6qaZXUThpuqPU8CdTA-28" value="Description: string" style="shape=partialRectangle;connectable=0;fillColor=none;top=0;left=0;bottom=0;right=0;align=left;spacingLeft=6;overflow=hidden;" vertex="1" parent="sC6qaZXUThpuqPU8CdTA-26">
          <mxGeometry x="30" width="150" height="30" as="geometry" />
        </mxCell>
        <mxCell id="sC6qaZXUThpuqPU8CdTA-29" value="" style="shape=partialRectangle;collapsible=0;dropTarget=0;pointerEvents=0;fillColor=none;top=0;left=0;bottom=0;right=0;points=[[0,0.5],[1,0.5]];portConstraint=eastwest;" vertex="1" parent="sC6qaZXUThpuqPU8CdTA-19">
          <mxGeometry y="120" width="180" height="40" as="geometry" />
        </mxCell>
        <mxCell id="sC6qaZXUThpuqPU8CdTA-30" value="" style="shape=partialRectangle;connectable=0;fillColor=none;top=0;left=0;bottom=0;right=0;editable=1;overflow=hidden;" vertex="1" parent="sC6qaZXUThpuqPU8CdTA-29">
          <mxGeometry width="30" height="40" as="geometry" />
        </mxCell>
        <mxCell id="sC6qaZXUThpuqPU8CdTA-31" value="UserID: number[]" style="shape=partialRectangle;connectable=0;fillColor=none;top=0;left=0;bottom=0;right=0;align=left;spacingLeft=6;overflow=hidden;" vertex="1" parent="sC6qaZXUThpuqPU8CdTA-29">
          <mxGeometry x="30" width="150" height="40" as="geometry" />
        </mxCell>
        <mxCell id="sC6qaZXUThpuqPU8CdTA-32" value="" style="edgeStyle=entityRelationEdgeStyle;fontSize=12;html=1;endArrow=ERoneToMany;entryX=1;entryY=0.5;entryDx=0;entryDy=0;" edge="1" parent="1" source="sC6qaZXUThpuqPU8CdTA-23" target="sC6qaZXUThpuqPU8CdTA-11">
          <mxGeometry width="100" height="100" relative="1" as="geometry">
            <mxPoint x="240" y="310" as="sourcePoint" />
            <mxPoint x="320" y="210" as="targetPoint" />
          </mxGeometry>
        </mxCell>
        <mxCell id="sC6qaZXUThpuqPU8CdTA-33" value="Document" style="shape=table;startSize=30;container=1;collapsible=1;childLayout=tableLayout;fixedRows=1;rowLines=0;fontStyle=1;align=center;resizeLast=1;" vertex="1" parent="1">
          <mxGeometry x="560" y="60" width="220" height="340" as="geometry">
            <mxRectangle x="550" y="10" width="90" height="30" as="alternateBounds" />
          </mxGeometry>
        </mxCell>
        <mxCell id="sC6qaZXUThpuqPU8CdTA-34" value="" style="shape=partialRectangle;collapsible=0;dropTarget=0;pointerEvents=0;fillColor=none;top=0;left=0;bottom=1;right=0;points=[[0,0.5],[1,0.5]];portConstraint=eastwest;" vertex="1" parent="sC6qaZXUThpuqPU8CdTA-33">
          <mxGeometry y="30" width="220" height="30" as="geometry" />
        </mxCell>
        <mxCell id="sC6qaZXUThpuqPU8CdTA-35" value="PK" style="shape=partialRectangle;connectable=0;fillColor=none;top=0;left=0;bottom=0;right=0;fontStyle=1;overflow=hidden;" vertex="1" parent="sC6qaZXUThpuqPU8CdTA-34">
          <mxGeometry width="30" height="30" as="geometry" />
        </mxCell>
        <mxCell id="sC6qaZXUThpuqPU8CdTA-36" value="ID: number" style="shape=partialRectangle;connectable=0;fillColor=none;top=0;left=0;bottom=0;right=0;align=left;spacingLeft=6;fontStyle=5;overflow=hidden;" vertex="1" parent="sC6qaZXUThpuqPU8CdTA-34">
          <mxGeometry x="30" width="190" height="30" as="geometry" />
        </mxCell>
        <mxCell id="sC6qaZXUThpuqPU8CdTA-37" value="" style="shape=partialRectangle;collapsible=0;dropTarget=0;pointerEvents=0;fillColor=none;top=0;left=0;bottom=0;right=0;points=[[0,0.5],[1,0.5]];portConstraint=eastwest;" vertex="1" parent="sC6qaZXUThpuqPU8CdTA-33">
          <mxGeometry y="60" width="220" height="30" as="geometry" />
        </mxCell>
        <mxCell id="sC6qaZXUThpuqPU8CdTA-38" value="" style="shape=partialRectangle;connectable=0;fillColor=none;top=0;left=0;bottom=0;right=0;editable=1;overflow=hidden;" vertex="1" parent="sC6qaZXUThpuqPU8CdTA-37">
          <mxGeometry width="30" height="30" as="geometry" />
        </mxCell>
        <mxCell id="sC6qaZXUThpuqPU8CdTA-39" value="Title: String" style="shape=partialRectangle;connectable=0;fillColor=none;top=0;left=0;bottom=0;right=0;align=left;spacingLeft=6;overflow=hidden;" vertex="1" parent="sC6qaZXUThpuqPU8CdTA-37">
          <mxGeometry x="30" width="190" height="30" as="geometry" />
        </mxCell>
        <mxCell id="sC6qaZXUThpuqPU8CdTA-40" value="" style="shape=partialRectangle;collapsible=0;dropTarget=0;pointerEvents=0;fillColor=none;top=0;left=0;bottom=0;right=0;points=[[0,0.5],[1,0.5]];portConstraint=eastwest;" vertex="1" parent="sC6qaZXUThpuqPU8CdTA-33">
          <mxGeometry y="90" width="220" height="30" as="geometry" />
        </mxCell>
        <mxCell id="sC6qaZXUThpuqPU8CdTA-41" value="" style="shape=partialRectangle;connectable=0;fillColor=none;top=0;left=0;bottom=0;right=0;editable=1;overflow=hidden;" vertex="1" parent="sC6qaZXUThpuqPU8CdTA-40">
          <mxGeometry width="30" height="30" as="geometry" />
        </mxCell>
        <mxCell id="sC6qaZXUThpuqPU8CdTA-42" value="Description: string" style="shape=partialRectangle;connectable=0;fillColor=none;top=0;left=0;bottom=0;right=0;align=left;spacingLeft=6;overflow=hidden;" vertex="1" parent="sC6qaZXUThpuqPU8CdTA-40">
          <mxGeometry x="30" width="190" height="30" as="geometry" />
        </mxCell>
        <mxCell id="sC6qaZXUThpuqPU8CdTA-43" value="" style="shape=partialRectangle;collapsible=0;dropTarget=0;pointerEvents=0;fillColor=none;top=0;left=0;bottom=0;right=0;points=[[0,0.5],[1,0.5]];portConstraint=eastwest;" vertex="1" parent="sC6qaZXUThpuqPU8CdTA-33">
          <mxGeometry y="120" width="220" height="30" as="geometry" />
        </mxCell>
        <mxCell id="sC6qaZXUThpuqPU8CdTA-44" value="" style="shape=partialRectangle;connectable=0;fillColor=none;top=0;left=0;bottom=0;right=0;editable=1;overflow=hidden;" vertex="1" parent="sC6qaZXUThpuqPU8CdTA-43">
          <mxGeometry width="30" height="30" as="geometry" />
        </mxCell>
        <mxCell id="sC6qaZXUThpuqPU8CdTA-45" value="CreateDate: Date" style="shape=partialRectangle;connectable=0;fillColor=none;top=0;left=0;bottom=0;right=0;align=left;spacingLeft=6;overflow=hidden;" vertex="1" parent="sC6qaZXUThpuqPU8CdTA-43">
          <mxGeometry x="30" width="190" height="30" as="geometry" />
        </mxCell>
        <mxCell id="sC6qaZXUThpuqPU8CdTA-53" value="" style="shape=partialRectangle;collapsible=0;dropTarget=0;pointerEvents=0;fillColor=none;top=0;left=0;bottom=0;right=0;points=[[0,0.5],[1,0.5]];portConstraint=eastwest;" vertex="1" parent="sC6qaZXUThpuqPU8CdTA-33">
          <mxGeometry y="150" width="220" height="30" as="geometry" />
        </mxCell>
        <mxCell id="sC6qaZXUThpuqPU8CdTA-54" value="" style="shape=partialRectangle;connectable=0;fillColor=none;top=0;left=0;bottom=0;right=0;editable=1;overflow=hidden;" vertex="1" parent="sC6qaZXUThpuqPU8CdTA-53">
          <mxGeometry width="30" height="30" as="geometry" />
        </mxCell>
        <mxCell id="sC6qaZXUThpuqPU8CdTA-55" value="SignatureDate: Date" style="shape=partialRectangle;connectable=0;fillColor=none;top=0;left=0;bottom=0;right=0;align=left;spacingLeft=6;overflow=hidden;" vertex="1" parent="sC6qaZXUThpuqPU8CdTA-53">
          <mxGeometry x="30" width="190" height="30" as="geometry" />
        </mxCell>
        <mxCell id="sC6qaZXUThpuqPU8CdTA-58" value="" style="shape=partialRectangle;collapsible=0;dropTarget=0;pointerEvents=0;fillColor=none;top=0;left=0;bottom=0;right=0;points=[[0,0.5],[1,0.5]];portConstraint=eastwest;" vertex="1" parent="sC6qaZXUThpuqPU8CdTA-33">
          <mxGeometry y="180" width="220" height="30" as="geometry" />
        </mxCell>
        <mxCell id="sC6qaZXUThpuqPU8CdTA-59" value="" style="shape=partialRectangle;connectable=0;fillColor=none;top=0;left=0;bottom=0;right=0;editable=1;overflow=hidden;" vertex="1" parent="sC6qaZXUThpuqPU8CdTA-58">
          <mxGeometry width="30" height="30" as="geometry" />
        </mxCell>
        <mxCell id="sC6qaZXUThpuqPU8CdTA-60" value="LastChangeDate: Date" style="shape=partialRectangle;connectable=0;fillColor=none;top=0;left=0;bottom=0;right=0;align=left;spacingLeft=6;overflow=hidden;" vertex="1" parent="sC6qaZXUThpuqPU8CdTA-58">
          <mxGeometry x="30" width="190" height="30" as="geometry" />
        </mxCell>
        <mxCell id="sC6qaZXUThpuqPU8CdTA-66" value="" style="shape=partialRectangle;collapsible=0;dropTarget=0;pointerEvents=0;fillColor=none;top=0;left=0;bottom=0;right=0;points=[[0,0.5],[1,0.5]];portConstraint=eastwest;" vertex="1" parent="sC6qaZXUThpuqPU8CdTA-33">
          <mxGeometry y="210" width="220" height="30" as="geometry" />
        </mxCell>
        <mxCell id="sC6qaZXUThpuqPU8CdTA-67" value="" style="shape=partialRectangle;connectable=0;fillColor=none;top=0;left=0;bottom=0;right=0;editable=1;overflow=hidden;" vertex="1" parent="sC6qaZXUThpuqPU8CdTA-66">
          <mxGeometry width="30" height="30" as="geometry" />
        </mxCell>
        <mxCell id="sC6qaZXUThpuqPU8CdTA-68" value="CreateUserID: number" style="shape=partialRectangle;connectable=0;fillColor=none;top=0;left=0;bottom=0;right=0;align=left;spacingLeft=6;overflow=hidden;" vertex="1" parent="sC6qaZXUThpuqPU8CdTA-66">
          <mxGeometry x="30" width="190" height="30" as="geometry" />
        </mxCell>
        <mxCell id="sC6qaZXUThpuqPU8CdTA-70" value="" style="shape=partialRectangle;collapsible=0;dropTarget=0;pointerEvents=0;fillColor=none;top=0;left=0;bottom=0;right=0;points=[[0,0.5],[1,0.5]];portConstraint=eastwest;" vertex="1" parent="sC6qaZXUThpuqPU8CdTA-33">
          <mxGeometry y="240" width="220" height="30" as="geometry" />
        </mxCell>
        <mxCell id="sC6qaZXUThpuqPU8CdTA-71" value="" style="shape=partialRectangle;connectable=0;fillColor=none;top=0;left=0;bottom=0;right=0;editable=1;overflow=hidden;" vertex="1" parent="sC6qaZXUThpuqPU8CdTA-70">
          <mxGeometry width="30" height="30" as="geometry" />
        </mxCell>
        <mxCell id="sC6qaZXUThpuqPU8CdTA-72" value="TargetUserID: number[]" style="shape=partialRectangle;connectable=0;fillColor=none;top=0;left=0;bottom=0;right=0;align=left;spacingLeft=6;overflow=hidden;" vertex="1" parent="sC6qaZXUThpuqPU8CdTA-70">
          <mxGeometry x="30" width="190" height="30" as="geometry" />
        </mxCell>
        <mxCell id="sC6qaZXUThpuqPU8CdTA-74" value="" style="shape=partialRectangle;collapsible=0;dropTarget=0;pointerEvents=0;fillColor=none;top=0;left=0;bottom=0;right=0;points=[[0,0.5],[1,0.5]];portConstraint=eastwest;" vertex="1" parent="sC6qaZXUThpuqPU8CdTA-33">
          <mxGeometry y="270" width="220" height="30" as="geometry" />
        </mxCell>
        <mxCell id="sC6qaZXUThpuqPU8CdTA-75" value="" style="shape=partialRectangle;connectable=0;fillColor=none;top=0;left=0;bottom=0;right=0;editable=1;overflow=hidden;" vertex="1" parent="sC6qaZXUThpuqPU8CdTA-74">
          <mxGeometry width="30" height="30" as="geometry" />
        </mxCell>
        <mxCell id="sC6qaZXUThpuqPU8CdTA-76" value="TargetDepartmentID: number[]" style="shape=partialRectangle;connectable=0;fillColor=none;top=0;left=0;bottom=0;right=0;align=left;spacingLeft=6;overflow=hidden;" vertex="1" parent="sC6qaZXUThpuqPU8CdTA-74">
          <mxGeometry x="30" width="190" height="30" as="geometry" />
        </mxCell>
        <mxCell id="sC6qaZXUThpuqPU8CdTA-112" value="" style="shape=partialRectangle;collapsible=0;dropTarget=0;pointerEvents=0;fillColor=none;top=0;left=0;bottom=0;right=0;points=[[0,0.5],[1,0.5]];portConstraint=eastwest;" vertex="1" parent="sC6qaZXUThpuqPU8CdTA-33">
          <mxGeometry y="300" width="220" height="30" as="geometry" />
        </mxCell>
        <mxCell id="sC6qaZXUThpuqPU8CdTA-113" value="" style="shape=partialRectangle;connectable=0;fillColor=none;top=0;left=0;bottom=0;right=0;editable=1;overflow=hidden;" vertex="1" parent="sC6qaZXUThpuqPU8CdTA-112">
          <mxGeometry width="30" height="30" as="geometry" />
        </mxCell>
        <mxCell id="sC6qaZXUThpuqPU8CdTA-114" value="Body: string" style="shape=partialRectangle;connectable=0;fillColor=none;top=0;left=0;bottom=0;right=0;align=left;spacingLeft=6;overflow=hidden;" vertex="1" parent="sC6qaZXUThpuqPU8CdTA-112">
          <mxGeometry x="30" width="190" height="30" as="geometry" />
        </mxCell>
        <mxCell id="sC6qaZXUThpuqPU8CdTA-97" value="Role" style="shape=table;startSize=30;container=1;collapsible=1;childLayout=tableLayout;fixedRows=1;rowLines=0;fontStyle=1;align=center;resizeLast=1;" vertex="1" parent="1">
          <mxGeometry x="330" y="330" width="180" height="150" as="geometry" />
        </mxCell>
        <mxCell id="sC6qaZXUThpuqPU8CdTA-98" value="" style="shape=partialRectangle;collapsible=0;dropTarget=0;pointerEvents=0;fillColor=none;top=0;left=0;bottom=1;right=0;points=[[0,0.5],[1,0.5]];portConstraint=eastwest;" vertex="1" parent="sC6qaZXUThpuqPU8CdTA-97">
          <mxGeometry y="30" width="180" height="30" as="geometry" />
        </mxCell>
        <mxCell id="sC6qaZXUThpuqPU8CdTA-99" value="PK" style="shape=partialRectangle;connectable=0;fillColor=none;top=0;left=0;bottom=0;right=0;fontStyle=1;overflow=hidden;" vertex="1" parent="sC6qaZXUThpuqPU8CdTA-98">
          <mxGeometry width="30" height="30" as="geometry" />
        </mxCell>
        <mxCell id="sC6qaZXUThpuqPU8CdTA-100" value="ID: number" style="shape=partialRectangle;connectable=0;fillColor=none;top=0;left=0;bottom=0;right=0;align=left;spacingLeft=6;fontStyle=5;overflow=hidden;" vertex="1" parent="sC6qaZXUThpuqPU8CdTA-98">
          <mxGeometry x="30" width="150" height="30" as="geometry" />
        </mxCell>
        <mxCell id="sC6qaZXUThpuqPU8CdTA-101" value="" style="shape=partialRectangle;collapsible=0;dropTarget=0;pointerEvents=0;fillColor=none;top=0;left=0;bottom=0;right=0;points=[[0,0.5],[1,0.5]];portConstraint=eastwest;" vertex="1" parent="sC6qaZXUThpuqPU8CdTA-97">
          <mxGeometry y="60" width="180" height="30" as="geometry" />
        </mxCell>
        <mxCell id="sC6qaZXUThpuqPU8CdTA-102" value="" style="shape=partialRectangle;connectable=0;fillColor=none;top=0;left=0;bottom=0;right=0;editable=1;overflow=hidden;" vertex="1" parent="sC6qaZXUThpuqPU8CdTA-101">
          <mxGeometry width="30" height="30" as="geometry" />
        </mxCell>
        <mxCell id="sC6qaZXUThpuqPU8CdTA-103" value="Title: string" style="shape=partialRectangle;connectable=0;fillColor=none;top=0;left=0;bottom=0;right=0;align=left;spacingLeft=6;overflow=hidden;" vertex="1" parent="sC6qaZXUThpuqPU8CdTA-101">
          <mxGeometry x="30" width="150" height="30" as="geometry" />
        </mxCell>
        <mxCell id="sC6qaZXUThpuqPU8CdTA-104" value="" style="shape=partialRectangle;collapsible=0;dropTarget=0;pointerEvents=0;fillColor=none;top=0;left=0;bottom=0;right=0;points=[[0,0.5],[1,0.5]];portConstraint=eastwest;" vertex="1" parent="sC6qaZXUThpuqPU8CdTA-97">
          <mxGeometry y="90" width="180" height="30" as="geometry" />
        </mxCell>
        <mxCell id="sC6qaZXUThpuqPU8CdTA-105" value="" style="shape=partialRectangle;connectable=0;fillColor=none;top=0;left=0;bottom=0;right=0;editable=1;overflow=hidden;" vertex="1" parent="sC6qaZXUThpuqPU8CdTA-104">
          <mxGeometry width="30" height="30" as="geometry" />
        </mxCell>
        <mxCell id="sC6qaZXUThpuqPU8CdTA-106" value="isSudo: boolean" style="shape=partialRectangle;connectable=0;fillColor=none;top=0;left=0;bottom=0;right=0;align=left;spacingLeft=6;overflow=hidden;" vertex="1" parent="sC6qaZXUThpuqPU8CdTA-104">
          <mxGeometry x="30" width="150" height="30" as="geometry" />
        </mxCell>
        <mxCell id="sC6qaZXUThpuqPU8CdTA-107" value="" style="shape=partialRectangle;collapsible=0;dropTarget=0;pointerEvents=0;fillColor=none;top=0;left=0;bottom=0;right=0;points=[[0,0.5],[1,0.5]];portConstraint=eastwest;" vertex="1" parent="sC6qaZXUThpuqPU8CdTA-97">
          <mxGeometry y="120" width="180" height="30" as="geometry" />
        </mxCell>
        <mxCell id="sC6qaZXUThpuqPU8CdTA-108" value="" style="shape=partialRectangle;connectable=0;fillColor=none;top=0;left=0;bottom=0;right=0;editable=1;overflow=hidden;" vertex="1" parent="sC6qaZXUThpuqPU8CdTA-107">
          <mxGeometry width="30" height="30" as="geometry" />
        </mxCell>
        <mxCell id="sC6qaZXUThpuqPU8CdTA-109" value="" style="shape=partialRectangle;connectable=0;fillColor=none;top=0;left=0;bottom=0;right=0;align=left;spacingLeft=6;overflow=hidden;" vertex="1" parent="sC6qaZXUThpuqPU8CdTA-107">
          <mxGeometry x="30" width="150" height="30" as="geometry" />
        </mxCell>
        <mxCell id="sC6qaZXUThpuqPU8CdTA-110" value="" style="edgeStyle=entityRelationEdgeStyle;fontSize=12;html=1;endArrow=ERmandOne;startArrow=ERmandOne;entryX=1;entryY=0.5;entryDx=0;entryDy=0;" edge="1" parent="1" source="sC6qaZXUThpuqPU8CdTA-97" target="sC6qaZXUThpuqPU8CdTA-82">
          <mxGeometry width="100" height="100" relative="1" as="geometry">
            <mxPoint x="120" y="380" as="sourcePoint" />
            <mxPoint x="340" y="230" as="targetPoint" />
          </mxGeometry>
        </mxCell>
        <mxCell id="sC6qaZXUThpuqPU8CdTA-115" value="" style="edgeStyle=entityRelationEdgeStyle;fontSize=12;html=1;endArrow=ERmany;startArrow=ERmany;entryX=0;entryY=0.5;entryDx=0;entryDy=0;exitX=1;exitY=0.775;exitDx=0;exitDy=0;exitPerimeter=0;" edge="1" parent="1" source="sC6qaZXUThpuqPU8CdTA-86" target="sC6qaZXUThpuqPU8CdTA-53">
          <mxGeometry width="100" height="100" relative="1" as="geometry">
            <mxPoint x="250" y="360" as="sourcePoint" />
            <mxPoint x="350" y="260" as="targetPoint" />
          </mxGeometry>
        </mxCell>
        <mxCell id="sC6qaZXUThpuqPU8CdTA-116" value="" style="edgeStyle=entityRelationEdgeStyle;fontSize=12;html=1;endArrow=ERmany;startArrow=ERmany;entryX=-0.006;entryY=0.245;entryDx=0;entryDy=0;entryPerimeter=0;" edge="1" parent="1" target="sC6qaZXUThpuqPU8CdTA-58">
          <mxGeometry width="100" height="100" relative="1" as="geometry">
            <mxPoint x="490" y="106" as="sourcePoint" />
            <mxPoint x="350" y="260" as="targetPoint" />
          </mxGeometry>
        </mxCell>
      </root>
    </mxGraphModel>
  </diagram>
</mxfile>
